<?xml version="1.0" encoding="UTF-8" standalone="no"?>
<!-- Created with Inkscape (http://www.inkscape.org/) -->

<svg
   xmlns:dc="http://purl.org/dc/elements/1.1/"
   xmlns:cc="http://creativecommons.org/ns#"
   xmlns:rdf="http://www.w3.org/1999/02/22-rdf-syntax-ns#"
   xmlns:svg="http://www.w3.org/2000/svg"
   xmlns="http://www.w3.org/2000/svg"
   xmlns:sodipodi="http://sodipodi.sourceforge.net/DTD/sodipodi-0.dtd"
   xmlns:inkscape="http://www.inkscape.org/namespaces/inkscape"
   width="802.85712"
   height="802.85712"
   viewBox="0 0 802.85712 802.85713"
   id="svg2"
   version="1.1"
   inkscape:version="0.91 r13725"
   sodipodi:docname="pusher-icon.svg"
   inkscape:export-filename="/home/fiji/github/pusher/webapp/images/pusher-icon-48.png"
   inkscape:export-xdpi="5.3807831"
   inkscape:export-ydpi="5.3807831">
  <defs
     id="defs4" />
  <sodipodi:namedview
     id="base"
     pagecolor="#ffffff"
     bordercolor="#666666"
     borderopacity="1.0"
     inkscape:pageopacity="0.0"
     inkscape:pageshadow="2"
     inkscape:zoom="0.5"
     inkscape:cx="-200.28571"
     inkscape:cy="228.14286"
     inkscape:document-units="px"
     inkscape:current-layer="flowRoot4146"
     showgrid="false"
     units="px"
     fit-margin-top="50"
     fit-margin-left="50"
     fit-margin-right="50"
     fit-margin-bottom="50"
     inkscape:window-width="2560"
     inkscape:window-height="1377"
     inkscape:window-x="0"
     inkscape:window-y="35"
     inkscape:window-maximized="1" />
  <metadata
     id="metadata7">
    <rdf:RDF>
      <cc:Work
         rdf:about="">
        <dc:format>image/svg+xml</dc:format>
        <dc:type
           rdf:resource="http://purl.org/dc/dcmitype/StillImage" />
        <dc:title></dc:title>
      </cc:Work>
    </rdf:RDF>
  </metadata>
  <g
     inkscape:label="Layer 1"
     inkscape:groupmode="layer"
     id="layer1"
     transform="translate(30,17.637787)">
    <path
       style="fill:#663399;fill-opacity:1;stroke:none"
       d="M 722.85712,383.79077 A 351.42856,351.42856 0 0 1 371.42856,735.21933 351.42856,351.42856 0 0 1 20,383.79077 351.42856,351.42856 0 0 1 371.42856,32.362213 351.42856,351.42856 0 0 1 722.85712,383.79077 Z"
       id="path4136" />
    <g
       style="font-style:normal;font-weight:normal;font-size:40px;line-height:125%;font-family:sans-serif;letter-spacing:0px;word-spacing:0px;fill:#000000;fill-opacity:1;stroke:none;stroke-width:1px;stroke-linecap:butt;stroke-linejoin:miter;stroke-opacity:1"
       id="flowRoot4138" />
    <g
       transform="translate(44.857628,-165.08933)"
       style="font-style:normal;font-weight:normal;font-size:158.92164612px;line-height:125%;font-family:sans-serif;letter-spacing:0px;word-spacing:0px;fill:#000000;fill-opacity:1;stroke:none;stroke-width:1px;stroke-linecap:butt;stroke-linejoin:miter;stroke-opacity:1"
       id="flowRoot4146">
      <path
         d="m 484.26093,454.12307 q 0,82.24195 -50.77547,120.14476 -50.77546,37.90281 -139.45374,37.90281 l -63.64812,0 0,183.07774 -61.50267,0 0,-492.73656 125.15079,0 q 90.82372,0 140.16889,37.90281 50.06032,37.90281 50.06032,113.70844 z m -66.50871,0.71515 q 0,-53.63606 -31.46648,-77.95107 -30.75134,-25.03016 -84.3874,-25.03016 l -71.51474,0 0,210.96848 69.3693,0 q 55.7815,0 86.53284,-24.31501 31.46648,-24.31501 31.46648,-83.67224 z"
         style="font-style:normal;font-variant:normal;font-weight:normal;font-stretch:normal;font-size:715.1473999px;font-family:'Fira Mono';-inkscape-font-specification:'Fira Mono';fill:#ffffff;fill-opacity:1"
         id="path4200"
         inkscape:connector-curvature="0" />
    </g>
    <g
       transform="translate(70.960508,-169.02264)"
       style="font-style:normal;font-weight:normal;font-size:158.92164612px;line-height:125%;font-family:sans-serif;letter-spacing:0px;word-spacing:0px;fill:#000000;fill-opacity:1;stroke:none;stroke-width:1px;stroke-linecap:butt;stroke-linejoin:miter;stroke-opacity:1"
       id="flowRoot4146-0">
      <path
         d="m 463.52166,635.77051 q 0,49.34517 -20.73928,87.96313 -20.02413,37.90281 -57.21179,58.64209 -36.47252,20.73927 -85.81769,20.73927 -50.06032,0 -86.53283,-20.73927 -36.47252,-21.45443 -56.49665,-59.35724 -19.30898,-37.90281 -19.30898,-87.24798 l 0,-333.25869 62.21782,0 0,335.40413 q 0,55.7815 25.74531,83.67225 25.74531,27.89075 74.37533,27.89075 48.63002,0 74.37533,-27.89075 26.46045,-27.89075 26.46045,-83.67225 l 0,-335.40413 62.93298,0 0,333.25869 z"
         style="font-style:normal;font-variant:normal;font-weight:normal;font-stretch:normal;font-size:715.1473999px;font-family:'Fira Mono';-inkscape-font-specification:'Fira Mono';fill:#ffffff;fill-opacity:1"
         id="path4203"
         inkscape:connector-curvature="0" />
    </g>
  </g>
</svg>
